<svg xmlns="http://www.w3.org/2000/svg" version="1.1" xmlns:xlink="http://www.w3.org/1999/xlink" xmlns:svgjs="http://svgjs.dev/svgjs" width="2000" height="1500" viewBox="0 0 2000 1500"><rect width="2000" height="1500" fill="#ffffff"></rect><g transform="matrix(0.75,0,0,0.75,249.090909090909,282.7536437246963)"><svg viewBox="0 0 396 247" data-background-color="#ffffff" preserveAspectRatio="xMidYMid meet" height="1247" width="2000" xmlns="http://www.w3.org/2000/svg" xmlns:xlink="http://www.w3.org/1999/xlink"><g id="tight-bounds" transform="matrix(1,0,0,1,0.2400000000000091,-0.09999999999999432)"><svg viewBox="0 0 395.52 247.2" height="247.2" width="395.52"><g><svg></svg></g><g><svg viewBox="0 0 395.52 247.2" height="247.2" width="395.52"><g transform="matrix(1,0,0,1,136.32940732394366,47.215199999999996)"><svg viewBox="0 0 122.86118535211267 152.7696" height="152.7696" width="122.86118535211267"><g><svg viewBox="0 0 122.86118535211267 152.7696" height="152.7696" width="122.86118535211267"><g><svg viewBox="0 0 122.86118535211267 152.7696" height="152.7696" width="122.86118535211267"><g><svg viewBox="0 0 122.86118535211267 152.7696" height="152.7696" width="122.86118535211267"><g id="textblocktransform"><svg viewBox="0 0 122.86118535211267 152.7696" height="152.7696" width="122.86118535211267" id="textblock"><g><svg viewBox="0 0 122.86118535211267 152.7696" height="152.7696" width="122.86118535211267"><g transform="matrix(1,0,0,1,0,0)"><svg width="122.86118535211267" viewBox="2.3499999046325684 -34.900001525878906 28.549999237060547 35.5" height="152.7696" data-palette-color="#ff0000"><path d="M16.55 0.6Q10.35 0.6 6.35-1.98 2.35-4.55 2.35-9.8L2.35-9.8 2.4-10.85 7.9-10.85Q7.8-10.15 7.8-9.85L7.8-9.85Q7.8-7.05 10.15-5.58 12.5-4.1 16.5-4.1L16.5-4.1Q20.9-4.1 23.15-5.4 25.4-6.7 25.4-9.15L25.4-9.15Q25.4-10.9 24.18-12.03 22.95-13.15 21.08-13.83 19.2-14.5 16-15.35L16-15.35Q11.95-16.4 9.38-17.43 6.8-18.45 5-20.43 3.2-22.4 3.2-25.6L3.2-25.6Q3.2-30.15 6.95-32.52 10.7-34.9 16.7-34.9L16.7-34.9Q22.6-34.9 26.28-32.45 29.95-30 29.95-25.1L29.95-25.1 29.95-24.5 24.55-24.5 24.55-25.15Q24.55-27.55 22.4-28.88 20.25-30.2 16.8-30.2L16.8-30.2Q13.1-30.2 10.93-29.1 8.75-28 8.75-25.9L8.75-25.9Q8.75-24.35 9.95-23.33 11.15-22.3 12.95-21.65 14.75-21 17.85-20.2L17.85-20.2Q22.05-19.1 24.63-18.1 27.2-17.1 29.05-15.13 30.9-13.15 30.9-9.95L30.9-9.95Q30.9-4.45 27.05-1.93 23.2 0.6 16.55 0.6L16.55 0.6Z" opacity="1" transform="matrix(1,0,0,1,0,0)" fill="#ff0000" class="wordmark-text-0" data-fill-palette-color="primary" id="text-0"></path></svg></g></svg></g></svg></g></svg></g></svg></g></svg></g></svg></g><path d="M76.889 41.215L76.889 0 324.089 0 324.089 247.2 76.889 247.2 76.889 205.985 90.666 205.985 90.666 233.423 310.312 233.423 310.312 13.777 90.666 13.777 90.666 41.215Z" fill="#ff0000" stroke="transparent" data-fill-palette-color="primary"></path></svg></g><defs></defs></svg><rect width="395.52" height="247.2" fill="none" stroke="none" visibility="hidden"></rect></g></svg></g></svg>